<svg width="21" height="21" viewBox="0 0 21 21" fill="none" xmlns="http://www.w3.org/2000/svg">
<path fill-rule="evenodd" clip-rule="evenodd" d="M10.125 1.25C5.22347 1.25 1.25 5.22347 1.25 10.125C1.25 15.0265 5.22347 19 10.125 19C15.0265 19 19 15.0265 19 10.125C19 5.22347 15.0265 1.25 10.125 1.25ZM0 10.125C0 4.53311 4.53311 0 10.125 0C15.7169 0 20.25 4.53311 20.25 10.125C20.25 15.7169 15.7169 20.25 10.125 20.25C4.53311 20.25 0 15.7169 0 10.125ZM6.18307 6.18305C6.42715 5.93897 6.82288 5.93897 7.06695 6.18305L10.125 9.24111L13.1831 6.18305C13.4271 5.93897 13.8229 5.93897 14.0669 6.18305C14.311 6.42713 14.311 6.82285 14.0669 7.06693L11.0089 10.125L14.0669 13.1831C14.311 13.4271 14.311 13.8229 14.0669 14.0669C13.8229 14.311 13.4271 14.311 13.1831 14.0669L10.125 11.0089L7.06695 14.0669C6.82287 14.311 6.42715 14.311 6.18307 14.0669C5.93899 13.8229 5.93899 13.4271 6.18307 13.1831L9.24112 10.125L6.18307 7.06693C5.93899 6.82285 5.93899 6.42712 6.18307 6.18305Z" fill="#0E0825"/>
</svg>
