<svg width="16" height="12" viewBox="0 0 16 12" fill="none" xmlns="http://www.w3.org/2000/svg">
<path fill-rule="evenodd" clip-rule="evenodd" d="M1 0.37502L15 0.375C15.3452 0.375 15.625 0.654821 15.625 1C15.625 1.34518 15.3452 1.625 15 1.625L1 1.62502C0.654823 1.62502 0.375 1.3452 0.375 1.00002C0.375 0.654843 0.654821 0.375021 1 0.37502ZM2.87499 6C2.87499 5.65482 3.15481 5.375 3.49999 5.375H12.5C12.8452 5.375 13.125 5.65482 13.125 6C13.125 6.34518 12.8452 6.625 12.5 6.625H3.49999C3.15481 6.625 2.87499 6.34518 2.87499 6ZM5.875 11C5.875 10.6548 6.15482 10.375 6.5 10.375H9.5C9.84518 10.375 10.125 10.6548 10.125 11C10.125 11.3452 9.84518 11.625 9.5 11.625H6.5C6.15482 11.625 5.875 11.3452 5.875 11Z" fill="#6F5F79"/>
</svg>
