<svg width="24" height="24" viewBox="0 0 24 24" fill="none" xmlns="http://www.w3.org/2000/svg">
<path fill-rule="evenodd" clip-rule="evenodd" d="M0 10.6087C0 4.74968 4.74957 0 10.6084 0C16.4673 0 21.2169 4.74968 21.2169 10.6087C21.2169 13.2306 20.2658 15.6303 18.6898 17.4817L23.744 22.5142C24.0843 22.8531 24.0855 23.4037 23.7466 23.744C23.4078 24.0843 22.8572 24.0855 22.5169 23.7466L17.4583 18.7097C15.6101 20.2741 13.2194 21.2174 10.6084 21.2174C4.74957 21.2174 0 16.4677 0 10.6087ZM10.6084 1.73913C5.71004 1.73913 1.73909 5.71017 1.73909 10.6087C1.73909 15.5072 5.71004 19.4783 10.6084 19.4783C15.5069 19.4783 19.4778 15.5072 19.4778 10.6087C19.4778 5.71017 15.5069 1.73913 10.6084 1.73913ZM9.7389 5.04348C9.7389 4.56323 10.1282 4.17391 10.6084 4.17391C14.1621 4.17391 17.0431 7.05486 17.0431 10.6087C17.0431 11.0889 16.6538 11.4783 16.1735 11.4783C15.6933 11.4783 15.304 11.0889 15.304 10.6087C15.304 8.01536 13.2017 5.91304 10.6084 5.91304C10.1282 5.91304 9.7389 5.52373 9.7389 5.04348Z" fill="#6F5F79"/>
</svg>
